<svg width="14" height="14" viewBox="0 0 14 14" fill="none" xmlns="http://www.w3.org/2000/svg">
<path fill-rule="evenodd" clip-rule="evenodd" d="M10.6479 7.28896C10.8854 7.05129 10.886 6.67297 10.6493 6.43478C10.416 6.19491 10.0295 6.1945 9.79609 6.43462L7.60174 8.62488V0.606596C7.60174 0.277212 7.3387 0 7.00032 0C6.66642 0 6.39373 0.272692 6.39373 0.606596V8.62406L4.20326 6.43333C3.9674 6.19746 3.58153 6.19237 3.34605 6.43488C3.10946 6.67312 3.10998 7.05133 3.34761 7.28896L6.57266 10.514C6.80753 10.7489 7.18956 10.7448 7.42535 10.5169L10.6479 7.28896ZM12.792 9.47939C12.792 9.14549 13.0595 8.87798 13.3934 8.87798C13.7228 8.87798 14 9.14101 14 9.47939V13.0181C14 13.352 13.7273 13.6247 13.3934 13.6247H0.601411C0.263032 13.6247 0 13.3475 0 13.0181V9.47939C0 9.14549 0.267507 8.87798 0.601411 8.87798C0.930795 8.87798 1.20801 9.14101 1.20801 9.47939V12.4167H12.792V9.47939Z" fill="#C8C8C8"/>
</svg>
