<svg width="18" height="18" viewBox="0 0 18 18" fill="none" xmlns="http://www.w3.org/2000/svg">
<path d="M8.99888 1.61143C11.3504 1.61143 11.6282 1.62089 12.5563 1.66226C13.4146 1.70128 13.8805 1.84433 14.1914 1.96493C14.6028 2.12453 14.896 2.31488 15.2034 2.62345C15.512 2.93202 15.7023 3.22522 15.8619 3.63547C15.9825 3.94522 16.1256 4.41222 16.1646 5.27054C16.2072 6.19862 16.2154 6.47764 16.2154 8.82798C16.2154 11.1783 16.206 11.4573 16.1646 12.3854C16.1256 13.2437 15.9825 13.7096 15.8619 14.0205C15.7023 14.4319 15.5108 14.7251 15.2034 15.0325C14.8948 15.3411 14.6016 15.5314 14.1914 15.691C13.8816 15.8116 13.4146 15.9547 12.5563 15.9937C11.6282 16.0363 11.3492 16.0445 8.99888 16.0445C6.64853 16.0445 6.36952 16.0351 5.44144 15.9937C4.58311 15.9547 4.1173 15.8116 3.80636 15.691C3.39494 15.5314 3.10173 15.3399 2.79434 15.0325C2.48577 14.7239 2.29543 14.4307 2.13582 14.0205C2.01523 13.7107 1.87218 13.2437 1.83316 12.3854C1.7906 11.4573 1.78232 11.1783 1.78232 8.82798C1.78232 6.47764 1.79178 6.19862 1.83316 5.27054C1.87218 4.41222 2.01523 3.9464 2.13582 3.63547C2.29543 3.22404 2.48577 2.93084 2.79434 2.62345C3.10292 2.31488 3.39612 2.12453 3.80636 1.96493C4.11612 1.84433 4.58311 1.70128 5.44144 1.66226C6.36833 1.62089 6.64735 1.61143 8.99888 1.61143ZM8.99888 0.024826C6.60715 0.024826 6.30804 0.0354665 5.36814 0.0780281C4.4306 0.12059 3.79099 0.269555 3.2306 0.487092C2.65129 0.711723 2.16065 1.0132 1.67119 1.50266C1.18173 1.99212 0.880256 2.48276 0.655625 3.06207C0.438088 3.62246 0.289123 4.26207 0.246561 5.19961C0.204 6.13833 0.193359 6.43862 0.193359 8.83035C0.193359 11.2221 0.204 11.5212 0.246561 12.4611C0.289123 13.3986 0.438088 14.0382 0.655625 14.5986C0.880256 15.1779 1.18173 15.6686 1.67119 16.158C2.16065 16.6475 2.65129 16.949 3.2306 17.1736C3.79099 17.3911 4.4306 17.5401 5.36814 17.5827C6.30686 17.6252 6.60715 17.6359 8.99888 17.6359C11.3906 17.6359 11.6897 17.6252 12.6296 17.5827C13.5672 17.5401 14.2068 17.3911 14.7672 17.1736C15.3465 16.949 15.8371 16.6475 16.3266 16.158C16.816 15.6686 17.1175 15.1779 17.3421 14.5986C17.5597 14.0382 17.7086 13.3986 17.7512 12.4611C17.7938 11.5224 17.8044 11.2221 17.8044 8.83035C17.8044 6.43862 17.7938 6.13951 17.7512 5.19961C17.7086 4.26207 17.5597 3.62246 17.3421 3.06207C17.1175 2.48276 16.816 1.99212 16.3266 1.50266C15.8371 1.0132 15.3465 0.711723 14.7672 0.487092C14.2068 0.269555 13.5672 0.12059 12.6296 0.0780281C11.6897 0.0354665 11.3894 0.024826 8.99888 0.024826Z" fill="#0F4F8D"/>
<path d="M8.9995 4.30818C6.50256 4.30818 4.47852 6.33222 4.47852 8.82917C4.47852 11.3261 6.50256 13.3502 8.9995 13.3502C11.4965 13.3502 13.5205 11.3261 13.5205 8.82917C13.5205 6.33222 11.4965 4.30818 8.9995 4.30818ZM8.9995 11.7647C7.37862 11.7647 6.06512 10.4512 6.06512 8.83035C6.06512 7.20946 7.37862 5.89596 8.9995 5.89596C10.6204 5.89596 11.9339 7.20946 11.9339 8.83035C11.9339 10.4512 10.6204 11.7647 8.9995 11.7647Z" fill="#0F4F8D"/>
<path d="M13.6976 5.1866C14.2813 5.1866 14.7545 4.71339 14.7545 4.12965C14.7545 3.54592 14.2813 3.07271 13.6976 3.07271C13.1138 3.07271 12.6406 3.54592 12.6406 4.12965C12.6406 4.71339 13.1138 5.1866 13.6976 5.1866Z" fill="#0F4F8D"/>
</svg>
