<svg width="421" height="100" viewBox="0 0 421 100" fill="none" xmlns="http://www.w3.org/2000/svg">
<path fill-rule="evenodd" clip-rule="evenodd" d="M123.791 98.8417H140.23L145.461 89.5012L150.264 98.8417H167.078L153.734 78.6666L165.103 61.4796H148.77L145.461 68.5791L142.152 61.4796H125.125L137.081 79.2006L123.791 98.8417Z" stroke="#FEFEFE" stroke-width="0.00798403" stroke-miterlimit="6.176"/>
<path fill-rule="evenodd" clip-rule="evenodd" d="M172.82 61.4796V98.8417H186.27L196.731 80.9085V98.8417H210.929V61.4796H197.479L187.017 80.1076V61.4796H172.82Z" stroke="#FEFEFE" stroke-width="0.00798403" stroke-miterlimit="6.176"/>
<path fill-rule="evenodd" clip-rule="evenodd" d="M217.732 98.8417H232.25L233.958 79.4136L239.615 98.8417H250.824L256.482 79.4136L258.189 98.8417H272.707L267.476 61.4796H251.038L245.22 82.7764L239.402 61.4796H222.962L217.732 98.8417Z" stroke="#FEFEFE" stroke-width="0.00798403" stroke-miterlimit="6.176"/>
<path fill-rule="evenodd" clip-rule="evenodd" d="M279.332 61.4796V98.8417H292.782L303.243 80.9085V98.8417H317.441V61.4796H303.991L293.529 80.1076V61.4796H279.332Z" stroke="#FEFEFE" stroke-width="0.00798403" stroke-miterlimit="6.176"/>
<path fill-rule="evenodd" clip-rule="evenodd" d="M326.922 98.8417H341.866V84.6452L349.713 98.8417H366.899L353.823 79.2006L366.526 61.4796H350.14L341.866 74.9299V61.4796H326.922V98.8417Z" stroke="#FEFEFE" stroke-width="0.00798403" stroke-miterlimit="6.176"/>
<path d="M123.792 98.8414H140.238L145.472 89.5068L150.268 98.8414H167.077L153.734 78.6579L165.11 61.486H148.771L145.472 68.5822L142.159 61.486H125.138L137.091 79.2028L123.791 98.8414H123.792ZM172.742 61.486V98.8414H186.193L196.662 80.9124V98.8414H210.854V61.486H197.404L186.949 80.1115V61.486H172.742ZM217.622 98.8414H232.147L233.857 79.415L239.515 98.8414H250.726L256.385 79.415L258.079 98.8414H272.604L267.369 61.486H250.938L245.113 82.7736L239.303 61.486H222.857L217.622 98.8414ZM279.373 61.486V98.8414H292.823L303.293 80.9124V98.8414H317.485V61.486H304.034L293.579 80.1115V61.486H279.373ZM326.871 98.8414H341.819V84.6499L349.671 98.8414H366.858L353.771 79.2028L366.48 61.486H350.094L341.819 74.9363V61.486H326.871V98.8414Z" fill="#0F4F8D"/>
<path fill-rule="evenodd" clip-rule="evenodd" d="M61.5983 29.1698C59.6075 27.4576 57.086 26.6011 54.0365 26.6011C50.3107 26.6011 47.6461 28.1457 46.0409 31.2339H45.8481V27.1519H34.5781V61.2338H46.7155V48.1144C48.4815 50.5315 51.0502 51.7383 54.4222 51.7383C57.4406 51.7383 59.9443 50.8203 61.9361 48.9861C64.2798 46.8461 65.4521 43.7107 65.4521 39.5824C65.4521 34.8738 64.167 31.4015 61.5983 29.1698ZM51.9648 42.7481C51.483 43.9718 50.6316 44.5824 49.4121 44.5824C48.1918 44.5824 47.3412 43.9566 46.8595 42.7018C46.5378 41.8765 46.3778 40.8061 46.3778 39.4914C46.3778 38.1145 46.5378 37.0298 46.8595 36.2339C47.3412 35.0119 48.1918 34.3988 49.4121 34.3988C50.6316 34.3988 51.4822 35.0271 51.9648 36.2802C52.2856 37.1056 52.4465 38.1768 52.4465 39.4914C52.4465 40.8667 52.2856 41.9531 51.9648 42.7473V42.7481Z" stroke="#FEFEFE" stroke-width="0.00798403" stroke-miterlimit="4.683"/>
<path fill-rule="evenodd" clip-rule="evenodd" d="M94.8399 29.9505C92.0304 27.7187 88.2179 26.6011 83.4006 26.6011C78.5851 26.6011 74.7718 27.7254 71.9623 29.9732C69.1519 32.221 67.748 35.2873 67.748 39.1705C67.748 43.085 69.1528 46.158 71.9623 48.3906C74.7718 50.6232 78.5851 51.7391 83.4006 51.7391C88.2179 51.7391 92.0304 50.6148 94.8399 48.3671C97.6493 46.1201 99.0549 43.0538 99.0549 39.1705C99.0549 35.2553 97.6493 32.1831 94.8399 29.9505ZM85.7124 42.9772C85.3275 44.232 84.5569 44.8586 83.4006 44.8586C82.2452 44.8586 81.4746 44.216 81.0897 42.9317C80.8649 42.1982 80.752 40.945 80.752 39.1705C80.752 37.3658 80.864 36.0975 81.0897 35.3631C81.4746 34.1091 82.2452 33.4817 83.4006 33.4817C84.5569 33.4817 85.3275 34.1243 85.7124 35.4086C85.9373 36.1429 86.0501 37.3969 86.0501 39.1705C86.0501 40.9753 85.9364 42.2436 85.7124 42.9772Z" stroke="#FEFEFE" stroke-width="0.00798403" stroke-miterlimit="4.683"/>
<path fill-rule="evenodd" clip-rule="evenodd" d="M135.38 44.3075H131.961V27.1516H107.349V35.0411C107.349 37.1516 107.221 38.7416 106.964 39.8128C106.546 41.5856 105.664 43.0855 104.314 44.3075H101.328V57.8395H112.31V51.1889H124.399V57.8395H135.381V44.3075H135.38ZM114.815 44.3075C115.745 43.0855 116.356 41.7692 116.644 40.3628C116.837 39.476 116.934 38.2068 116.934 36.5553V34.0322H120.979V44.3075H114.815Z" stroke="#FEFEFE" stroke-width="0.00798403" stroke-miterlimit="4.683"/>
<path fill-rule="evenodd" clip-rule="evenodd" d="M167.643 27.1516H155.505V35.4546H151.17V27.1516H139.033V51.1881H151.17V42.3351H155.505V51.1881H167.643V27.1516Z" stroke="#FEFEFE" stroke-width="0.00798403" stroke-miterlimit="4.683"/>
<path fill-rule="evenodd" clip-rule="evenodd" d="M200.228 39.9041C200.228 35.0111 198.622 31.4335 195.412 29.1698C192.971 27.4576 189.825 26.6011 185.971 26.6011C181.636 26.6011 178.12 27.7019 175.423 29.9033C172.726 32.1056 171.377 35.0565 171.377 38.757C171.377 42.1215 172.34 44.9192 174.267 47.1518C176.899 50.2097 181.155 51.7383 187.03 51.7383C188.765 51.7383 190.643 51.6237 192.665 51.3947C194.689 51.1656 196.598 50.8211 198.398 50.363V44.1242C196.568 44.7364 195.01 45.1634 193.726 45.4085C192.441 45.6527 191.044 45.7757 189.535 45.7757C187.254 45.7757 185.585 45.347 184.526 44.4914C183.755 43.8488 183.37 43.0075 183.37 41.9682H200.228V39.9041ZM183.37 37.0601V36.6011C183.37 34.8889 183.787 33.6813 184.623 32.9772C185.136 32.5486 185.762 32.3346 186.502 32.3346C187.335 32.3346 188.026 32.626 188.572 33.2063C189.278 33.971 189.631 35.118 189.631 36.6466V37.0601H183.369H183.37Z" stroke="#FEFEFE" stroke-width="0.00798403" stroke-miterlimit="4.683"/>
<path fill-rule="evenodd" clip-rule="evenodd" d="M232.536 27.1516H220.399V35.4546H216.063V27.1516H203.926V51.1881H216.063V42.3351H220.399V51.1881H232.536V27.1516Z" stroke="#FEFEFE" stroke-width="0.00798403" stroke-miterlimit="4.683"/>
<path fill-rule="evenodd" clip-rule="evenodd" d="M260.984 43.6197C259.764 44.1402 258.745 44.4762 257.926 44.6295C257.107 44.7828 256.312 44.8586 255.542 44.8586C253.616 44.8586 252.09 44.339 250.966 43.2989C249.842 42.2596 249.28 40.8978 249.28 39.216C249.28 37.4433 249.866 36.0436 251.039 35.0195C252.21 33.9946 253.728 33.4825 255.59 33.4825C256.199 33.4825 256.978 33.5667 257.926 33.7352C258.873 33.9028 259.828 34.1866 260.792 34.5832V27.7027C259.186 27.306 257.934 27.045 257.035 26.922C255.462 26.7098 253.696 26.6011 251.737 26.6011C246.181 26.6011 242.055 28.0236 239.359 30.8676C237.303 33.0387 236.275 35.7606 236.275 39.0324C236.275 42.7026 237.544 45.6847 240.08 47.978C242.842 50.4851 246.776 51.7391 251.881 51.7391C253.423 51.7391 254.947 51.6473 256.457 51.4646C257.966 51.2801 259.475 50.9753 260.984 50.5466V43.6197Z" stroke="#FEFEFE" stroke-width="0.00798403" stroke-miterlimit="4.683"/>
<path fill-rule="evenodd" clip-rule="evenodd" d="M289.067 38.9403L297.737 27.1516H284.348L277.461 37.6569H277.267V27.1516H265.322V51.1881H277.267V40.5918H277.461L284.396 51.1881H297.737L289.067 38.9403Z" stroke="#FEFEFE" stroke-width="0.00798403" stroke-miterlimit="4.683"/>
<path fill-rule="evenodd" clip-rule="evenodd" d="M329.815 27.1516H317.919L312.283 38.3896H312.042V27.1516H300.965V51.1881H312.958L318.496 39.9493H318.737V51.1881H329.815V27.1516Z" stroke="#FEFEFE" stroke-width="0.00798403" stroke-miterlimit="4.683"/>
<path d="M65.4605 39.5773C65.4605 43.7124 64.2866 46.8461 61.9386 48.9919C59.9452 50.8254 57.4464 51.7357 54.4289 51.7357C51.0569 51.7357 48.4765 50.5264 46.7155 48.1211V61.2413H34.5781V27.1477H45.8548V31.2306H46.046C47.6436 28.1491 50.3191 26.6011 54.0474 26.6011C57.0919 26.6011 59.6176 27.4593 61.5975 29.1757C64.1779 31.399 65.4605 34.8704 65.4605 39.5773ZM52.449 39.4864C52.449 38.1734 52.2856 37.1064 51.9715 36.2752C51.494 35.0262 50.6333 34.403 49.4189 34.403C48.2036 34.403 47.3429 35.0136 46.8662 36.2364C46.5521 37.0289 46.3887 38.122 46.3887 39.4872C46.3887 40.8001 46.5521 41.8798 46.8662 42.6984C47.3438 43.96 48.2045 44.584 49.4189 44.584C50.6333 44.584 51.494 43.9734 51.9715 42.7506C52.2856 41.9573 52.449 40.8658 52.449 39.4872V39.4864ZM99.1979 39.1748C99.1979 43.0631 97.7915 46.1185 94.9787 48.3679C92.1666 50.6173 88.3567 51.7357 83.5378 51.7357C78.718 51.7357 74.9089 50.6173 72.1103 48.3814C69.2975 46.158 67.8919 43.0892 67.8919 39.1748C67.8919 35.2873 69.2975 32.2176 72.1103 29.9681C74.9089 27.7195 78.718 26.6011 83.5378 26.6011C88.3567 26.6011 92.1666 27.7195 94.9787 29.9429C97.7915 32.1797 99.1979 35.2612 99.1979 39.1748ZM86.1864 39.1748C86.1864 37.3927 86.0777 36.1455 85.8453 35.4044C85.463 34.1167 84.6983 33.48 83.5378 33.48C82.3772 33.48 81.6134 34.104 81.231 35.3648C80.9986 36.1067 80.8891 37.3675 80.8891 39.1756C80.8891 40.9433 80.9986 42.1923 81.231 42.9325C81.6134 44.2202 82.3772 44.8569 83.5378 44.8569C84.6983 44.8569 85.463 44.2328 85.8453 42.9847C86.0777 42.2436 86.1864 40.9829 86.1864 39.1756V39.1748ZM135.433 57.8465H124.456V51.1892H112.359V57.8465H101.383V44.3112H104.373C105.725 43.0892 106.598 41.5935 107.022 39.8114C107.281 38.7461 107.403 37.1594 107.403 35.0397V27.1469H132.019V44.3112H135.433V57.8465ZM121.03 44.3112V34.0392H116.988V36.5615C116.988 38.213 116.893 39.4737 116.702 40.358C116.414 41.7754 115.8 43.0892 114.872 44.3112H121.03ZM167.778 51.19H155.64V42.3346H151.299V51.19H139.161V27.1477H151.299V35.4566H155.64V27.1477H167.778V51.19ZM200.354 41.9708H183.493C183.493 43.0108 183.876 43.8564 184.654 44.4931C185.705 45.3512 187.384 45.7807 189.665 45.7807C191.18 45.7807 192.573 45.6502 193.856 45.4035C195.14 45.1559 196.696 44.7398 198.526 44.1292V50.3571C196.737 50.8127 194.826 51.1639 192.805 51.398C190.771 51.6187 188.9 51.7357 187.167 51.7357C181.282 51.7357 177.036 50.2139 174.401 47.1585C172.476 44.9217 171.507 42.1266 171.507 38.7587C171.507 35.0523 172.858 32.1005 175.562 29.9033C178.251 27.7061 181.774 26.6011 186.102 26.6011C189.952 26.6011 193.092 27.4593 195.536 29.1757C198.745 31.4377 200.355 35.0136 200.355 39.9024V41.9699L200.354 41.9708ZM189.76 37.0559V36.6533C189.76 35.118 189.405 33.9744 188.695 33.2071C188.149 32.6218 187.466 32.3363 186.633 32.3363C185.895 32.3363 185.268 32.5443 184.749 32.973C183.916 33.688 183.493 34.8982 183.493 36.6011V37.0559H189.76ZM232.699 51.19H220.562V42.3346H216.22V51.19H204.083V27.1477H216.22V35.4566H220.562V27.1477H232.699V51.19ZM261.234 50.5525C259.719 50.982 258.218 51.281 256.702 51.4637C255.187 51.6456 253.671 51.7366 252.129 51.7366C247.022 51.7366 243.09 50.4876 240.332 47.9788C237.792 45.6772 236.522 42.6992 236.522 39.0324C236.522 35.769 237.546 33.0387 239.608 30.8667C242.298 28.0194 246.421 26.602 251.978 26.602C253.944 26.602 255.719 26.7064 257.289 26.9279C258.176 27.045 259.432 27.3052 261.043 27.7078V34.5866C260.074 34.1832 259.119 33.8969 258.176 33.7276C257.235 33.5583 256.456 33.4808 255.842 33.4808C253.971 33.4808 252.456 33.9878 251.296 35.0153C250.122 36.0419 249.534 37.4466 249.534 39.2152C249.534 40.8919 250.094 42.2571 251.213 43.2972C252.332 44.3381 253.862 44.8577 255.787 44.8577C256.565 44.8577 257.357 44.7794 258.176 44.6236C258.995 44.4813 260.019 44.1427 261.234 43.6223V50.5525ZM297.866 51.19H284.514L277.578 40.5921H277.387V51.19H265.44V27.1477H277.387V37.6538H277.578L284.473 27.1477H297.867L289.197 38.9415L297.867 51.19H297.866ZM330.115 51.19H319.029V39.9554H318.797L313.253 51.19H301.253V27.1477H312.339V38.3949H312.57L318.21 27.1477H330.115V51.19H330.115Z" fill="#2B2A29"/>
<path fill-rule="evenodd" clip-rule="evenodd" d="M355.911 4.52164C355.911 5.75458 355.404 6.70118 354.39 7.35724C353.552 7.89201 352.434 8.15898 351.037 8.15898C349.185 8.15898 347.841 7.70674 347.003 6.80224C346.443 6.18578 346.164 5.42614 346.164 4.52164L340.61 6.06282C340.889 8.61123 341.832 10.6661 343.439 12.2275C345.291 14.0365 347.822 14.9401 351.038 14.9401C354.286 14.9401 356.836 14.0365 358.688 12.2275C360.26 10.7074 361.186 8.65165 361.466 6.06282L355.911 4.52164ZM366.758 18.8857H353.814L347.683 33.9892H347.421V18.8857H335.369V51.1889H348.417L354.443 36.0854H354.705V51.1889H366.757V18.8857H366.758Z" stroke="#FEFEFE" stroke-width="0.00798403" stroke-miterlimit="4.683"/>
<path d="M361.463 6.06665C361.181 8.65296 360.261 10.6978 358.686 12.2179C356.829 14.0353 354.289 14.944 351.036 14.944C347.828 14.944 345.303 14.0353 343.446 12.2179C341.827 10.6624 340.891 8.60075 340.609 6.06665L346.164 4.51201C346.164 5.42071 346.447 6.18961 347.011 6.80103C347.842 7.70973 349.179 8.1645 351.036 8.1645C352.433 8.1645 353.546 7.90259 354.393 7.36023C355.403 6.6966 355.908 5.75337 355.908 4.51285L361.463 6.0675V6.06665ZM366.766 51.1876H354.705V36.0892H354.453L348.422 51.1876H335.365V18.8761H347.427V33.9922H347.679L353.813 18.8761H366.766V51.1876H366.766Z" fill="#2B2A29"/>
<path d="M1 1V65.1726H18.6477V15.2664L50.3218 15.2874V1H1Z" fill="#2B2A29"/>
<path fill-rule="evenodd" clip-rule="evenodd" d="M1 1V65.1726H18.6477V15.2664L50.3218 15.2874V1H1Z" stroke="#FEFEFE" stroke-width="0.00399202" stroke-miterlimit="2"/>
<path d="M406.351 84.165C406.944 84.165 407.425 84.6484 407.425 85.2446C407.425 85.8417 406.944 86.3252 406.351 86.3252C405.757 86.3252 405.277 85.8417 405.277 85.2446C405.277 84.6484 405.757 84.165 406.351 84.165ZM387.94 73.4711L389.495 69.64C390.448 66.8238 394.185 64.7512 397.171 64.7192H417.874C419.447 64.7378 420.276 64.0649 420.999 63.2951L418.412 69.5802H395.56C392.104 69.5398 390.329 70.6624 387.94 73.4711H387.94ZM385.643 79.1305L387.337 74.9592C390.103 71.5257 391.871 70.1748 395.657 70.2195L418.139 70.2422L416.107 75.1782H393.314C389.832 75.1377 388.058 76.278 385.642 79.1305H385.643ZM401.371 99.4361H377.396C379.968 93.1063 382.496 86.8785 385.036 80.6245C387.834 77.1421 389.601 75.7719 393.413 75.8165L415.836 75.8401L413.864 80.6295L393.211 80.7045C389.522 80.718 385.96 83.5249 385.14 87.0124C384.194 91.0388 386.755 93.9552 390.229 94.1136C394.491 94.3089 396.508 91.6443 397.319 89.6905C398.15 87.6878 398.46 86.1887 398.951 84.8522C399.605 82.9118 400.985 82.2482 403.08 82.249H415.541C413.963 82.7004 412.669 83.5207 412.003 85.1512L408.321 94.0942C406.838 97.6246 405.077 99.5885 401.371 99.4352L401.371 99.4361Z" fill="#0F4F8D"/>
<path fill-rule="evenodd" clip-rule="evenodd" d="M406.351 84.165C406.944 84.165 407.425 84.6484 407.425 85.2446C407.425 85.8417 406.944 86.3252 406.351 86.3252C405.757 86.3252 405.277 85.8417 405.277 85.2446C405.277 84.6484 405.757 84.165 406.351 84.165ZM387.94 73.4711L389.495 69.64C390.448 66.8238 394.185 64.7512 397.171 64.7192H417.874C419.447 64.7378 420.276 64.0649 420.999 63.2951L418.412 69.5802H395.56C392.104 69.5398 390.329 70.6624 387.94 73.4711H387.94ZM385.643 79.1305L387.337 74.9592C390.103 71.5257 391.871 70.1748 395.657 70.2195L418.139 70.2422L416.107 75.1782H393.314C389.832 75.1377 388.058 76.278 385.642 79.1305H385.643ZM401.371 99.4361H377.396C379.968 93.1063 382.496 86.8785 385.036 80.6245C387.834 77.1421 389.601 75.7719 393.413 75.8165L415.836 75.8401L413.864 80.6295L393.211 80.7045C389.522 80.718 385.96 83.5249 385.14 87.0124C384.194 91.0388 386.755 93.9552 390.229 94.1136C394.491 94.3089 396.508 91.6443 397.319 89.6905C398.15 87.6878 398.46 86.1887 398.951 84.8522C399.605 82.9118 400.985 82.2482 403.08 82.249H415.541C413.963 82.7004 412.669 83.5207 412.003 85.1512L408.321 94.0942C406.838 97.6246 405.077 99.5885 401.371 99.4352L401.371 99.4361Z" stroke="#FEFEFE" stroke-width="0.00135729" stroke-miterlimit="10" stroke-linejoin="round"/>
<path d="M401.623 55.9526C401.622 55.8785 403.583 53.4716 403.969 53.0892C404.547 52.5148 405.22 51.9203 406.341 51.9203L415.902 51.9304C417.963 51.9321 420.347 49.9968 420.502 47.8492L420.565 5.36504H382.754L382.818 47.8492C382.821 49.9723 385.475 51.9287 387.418 51.9304L397.052 51.9455C398.173 51.9464 398.848 52.5148 399.426 53.0892C399.811 53.4724 401.623 55.8785 401.623 55.9526Z" fill="#FEFEFE"/>
<path d="M401.618 54.0138C401.618 53.9456 403.428 51.7231 403.784 51.3702C404.318 50.8397 404.941 50.2906 405.975 50.2906L414.803 50.3007C416.705 50.3015 418.906 48.5144 419.05 46.532L419.109 7.30613H384.197L384.256 46.532C384.259 48.4917 386.709 50.2982 388.502 50.3007L397.398 50.3142C398.434 50.315 399.056 50.8397 399.59 51.3702C399.945 51.724 401.618 53.9456 401.618 54.0138Z" fill="#255694"/>
<path d="M401.76 47.0949C404.735 45.44 417.883 37.9489 417.883 37.6213L417.879 19.0826L401.76 9.81699L385.641 19.0826L385.637 37.6213C385.637 37.9489 398.786 45.4409 401.761 47.0949H401.76Z" fill="#FEFEFE"/>
<path d="M393.321 39.3873H390.245V35.1049C390.205 34.1136 389.568 33.2967 389.058 32.5859C389.569 32.3139 390.192 32.0107 390.199 31.4726L390.21 27.73C390.215 26.8794 390.646 26.3648 390.932 25.9707C389.457 25.9597 387.923 24.918 387.905 23.1427C387.884 21.3691 389.048 20.0216 390.62 19.8203C392.19 19.619 393.592 20.3441 395.033 20.7172C396.545 21.108 397.996 21.7472 399.749 21.1257C400.439 20.8806 400.836 19.9391 400.704 19.0649C400.618 18.4989 400.277 18.104 399.631 17.7258C400.413 17.1793 401.686 17.5304 401.951 18.8543C402.221 20.1968 401.354 21.0608 400.354 21.6394C399.356 22.2171 397.873 22.1927 396.675 21.9182C394.726 21.4726 392.437 20.4898 390.938 20.6465C389.437 20.8031 388.673 21.7952 388.685 22.917C388.696 24.0379 389.303 25.0081 391.177 25.0173L398.678 24.9929L404.326 21.743C405.318 21.172 406.909 20.8949 408.24 20.916C409.494 20.937 410.729 21.5644 411.64 22.4774C412.297 23.1368 412.631 24.0312 413.144 24.8068C413.826 24.3857 414.681 24.2459 415.636 24.3419C415.626 24.6746 415.384 25.1032 414.902 25.2144C414.462 25.3163 414.171 25.3551 414.051 25.7273C414.795 25.713 415.231 26.0355 415.216 26.9038V30.1655C415.173 30.8906 414.675 31.3959 413.629 31.913C413.49 32.3316 413.259 32.7746 413.119 33.194C412.937 33.5805 412.527 33.8643 411.98 33.4264C411.639 33.1241 411.32 32.9009 411.024 32.5177C410.309 32.8984 409.408 33.3051 408.835 33.8307C408.189 34.4219 407.825 35.2084 407.819 36.2982C407.812 37.5421 408.787 38.3034 409.299 39.4361H406.177V34.7773C406.196 33.7515 405.653 32.922 404.734 32.6339C403.812 32.3451 402.71 32.8201 401.961 33.4256C400.765 32.8041 399.26 31.604 397.919 31.4717C396.423 31.3227 395.079 31.9038 393.835 32.7476C392.737 33.4921 391.518 35.1655 391.943 36.8751C392.371 38.0474 392.708 38.279 393.32 39.3898L393.321 39.3873Z" fill="#255694"/>
</svg>
