<svg width="12" height="20" viewBox="0 0 12 20" fill="none" xmlns="http://www.w3.org/2000/svg">
<path d="M5.94296 10.4913C8.71248 10.4913 10.964 8.23978 10.964 5.47144C10.964 2.70192 8.71248 0.449173 5.94296 0.449173C3.17344 0.449173 0.921875 2.70192 0.921875 5.47144C0.920693 8.23978 3.17344 10.4913 5.94296 10.4913ZM5.94296 3.39135C7.09003 3.39135 8.02188 4.32437 8.02188 5.47026C8.02188 6.61615 7.09003 7.54918 5.94296 7.54918C4.79707 7.54918 3.86405 6.61615 3.86405 5.47026C3.86286 4.32437 4.79707 3.39135 5.94296 3.39135Z" fill="#0F4F8D"/>
<path d="M7.97567 14.5877C8.99857 14.3547 9.98363 13.9503 10.8918 13.3803C11.5789 12.9475 11.7858 12.0381 11.353 11.3511C10.9202 10.6628 10.0132 10.4559 9.32377 10.8887C7.26733 12.1824 4.61842 12.1812 2.56316 10.8887C1.87492 10.4559 0.966723 10.6628 0.535094 11.3511C0.102282 12.0393 0.308045 12.9463 0.996287 13.3803C1.90448 13.9503 2.88954 14.3547 3.91244 14.5877L1.10508 17.395C0.531546 17.9698 0.531546 18.9004 1.10508 19.4751C1.39244 19.7625 1.76849 19.9056 2.14454 19.9056C2.52177 19.9056 2.89782 19.7613 3.18518 19.4751L5.94288 16.7163L8.70294 19.4751C9.27647 20.0499 10.2083 20.0499 10.783 19.4751C11.3578 18.9004 11.3578 17.9686 10.783 17.395L7.97567 14.5877Z" fill="#0F4F8D"/>
</svg>
