<svg width="14" height="14" viewBox="0 0 14 14" fill="none" xmlns="http://www.w3.org/2000/svg">
<path d="M11.9933 9.98667C11.4333 9.98667 10.8733 10.22 10.5467 10.64L3.96667 7.37333C3.96667 7.23333 4.01333 7.14 4.01333 7C4.01333 6.86 4.01333 6.76667 3.96667 6.62667L10.5467 3.36C10.92 3.78 11.4333 4.01333 11.9933 4.01333C13.1133 4.01333 14 3.12667 14 2.00667C14 0.886667 13.1133 0 11.9933 0C10.8733 0 9.98667 0.886667 9.98667 2.00667C9.98667 2.14667 9.98667 2.24 10.0333 2.38L3.45333 5.64667C3.08 5.22667 2.56667 4.99333 2.00667 4.99333C0.886667 4.99333 0 5.88 0 7C0 8.12 0.886667 9.00667 2.00667 9.00667C2.56667 9.00667 3.12667 8.77333 3.45333 8.35333L10.0333 11.62C10.0333 11.76 9.98667 11.8533 9.98667 11.9933C9.98667 13.1133 10.8733 14 11.9933 14C13.1133 14 14 13.1133 14 11.9933C14 10.8733 13.1133 9.98667 11.9933 9.98667Z" fill="#C8C8C8"/>
</svg>
