<svg width="19" height="19" viewBox="0 0 19 19" fill="none" xmlns="http://www.w3.org/2000/svg">
<path d="M14.1959 12.8836C15.2995 11.4954 15.9055 9.73858 15.9055 7.96005C15.9055 3.57877 12.3349 4.13694e-08 7.94191 4.13694e-08C3.54898 4.13694e-08 4.12752e-08 3.57877 4.12752e-08 7.96005C4.12752e-08 12.3413 3.57062 15.9201 7.94191 15.9201C9.69476 15.9201 11.4476 15.3128 12.8542 14.2066L17.6367 19L19 17.6336L14.1959 12.8836ZM7.94191 14.0331C4.63098 14.0331 1.92597 11.3219 1.92597 8.00343C1.92597 4.68493 4.63098 1.97374 7.94191 1.97374C11.2528 1.97374 13.9579 4.68493 13.9579 8.00343C13.9579 11.3219 11.2528 14.0331 7.94191 14.0331Z" fill="white"/>
</svg>
