<svg width="14" height="10" viewBox="0 0 14 10" fill="none" xmlns="http://www.w3.org/2000/svg">
<path d="M7 0.827332C4.32515 0.827332 1.89946 2.29077 0.109543 4.66777C-0.0365143 4.86252 -0.0365143 5.13458 0.109543 5.32933C1.89946 7.7092 4.32515 9.17263 7 9.17263C9.67485 9.17263 12.1005 7.7092 13.8905 5.33219C14.0365 5.13745 14.0365 4.86538 13.8905 4.67064C12.1005 2.29077 9.67485 0.827332 7 0.827332ZM7.19188 7.93831C5.41628 8.05 3.94998 6.58656 4.06168 4.8081C4.15332 3.3418 5.34182 2.1533 6.80812 2.06166C8.58372 1.94997 10.05 3.4134 9.93832 5.19186C9.84382 6.65529 8.65531 7.8438 7.19188 7.93831ZM7.1031 6.58083C6.14657 6.64098 5.35614 5.85341 5.41915 4.89688C5.46783 4.10646 6.10934 3.46781 6.89977 3.41626C7.8563 3.35612 8.64672 4.14369 8.58372 5.10022C8.53217 5.89351 7.89066 6.53215 7.1031 6.58083Z" fill="#C8C8C8"/>
</svg>
