<svg width="24" height="14" viewBox="0 0 24 14" fill="none" xmlns="http://www.w3.org/2000/svg">
<path fill-rule="evenodd" clip-rule="evenodd" d="M11.7562 13.8128H13.1099C13.1099 13.8128 13.519 13.7679 13.7282 13.5432C13.9209 13.3363 13.9139 12.9486 13.9139 12.9486C13.9139 12.9486 13.8878 11.1326 14.7308 10.8642C15.5619 10.6006 16.6295 12.6199 17.7598 13.3966C18.6157 13.9842 19.2648 13.8554 19.2648 13.8554L22.289 13.8128C22.289 13.8128 23.8709 13.7147 23.1213 12.4709C23.0599 12.3692 22.6839 11.5511 20.8727 9.86876C18.9763 8.10836 19.2305 8.39329 21.5146 5.34896C22.9062 3.49516 23.4618 2.36255 23.288 1.87782C23.1225 1.41556 22.0987 1.53733 22.0987 1.53733L18.6938 1.55861C18.6938 1.55861 18.4407 1.52433 18.254 1.63664C18.0707 1.74659 17.9537 2.00196 17.9537 2.00196C17.9537 2.00196 17.4145 3.43723 16.6957 4.65733C15.1789 7.2323 14.5724 7.36827 14.3253 7.20866C13.7483 6.83625 13.8926 5.71191 13.8926 4.9127C13.8926 2.41694 14.2709 1.37654 13.156 1.10699C12.786 1.01714 12.5129 0.959204 11.5659 0.948564C10.3505 0.936741 9.32193 0.952111 8.74025 1.23822C8.35247 1.42738 8.05336 1.85063 8.23661 1.87546C8.46124 1.90502 8.9708 2.0126 9.24154 2.38029C9.5903 2.85556 9.57848 3.92078 9.57848 3.92078C9.57848 3.92078 9.77947 6.85871 9.1103 7.22285C8.65158 7.47349 8.02144 6.96275 6.67011 4.62541C5.9773 3.42896 5.45474 2.106 5.45474 2.106C5.45474 2.106 5.35424 1.85891 5.17454 1.72649C4.95582 1.56571 4.65198 1.51487 4.65198 1.51487L1.41612 1.53615C1.41612 1.53615 0.930204 1.54915 0.751682 1.76078C0.593259 1.94876 0.738677 2.33773 0.738677 2.33773C0.738677 2.33773 3.27227 8.2656 6.14045 11.252C8.76981 13.9925 11.7562 13.8128 11.7562 13.8128Z" fill="#0F4F8D"/>
</svg>
