<svg width="17" height="20" viewBox="0 0 17 20" fill="none" xmlns="http://www.w3.org/2000/svg">
<path d="M14.1309 13.1348C13.8057 13.1348 13.6426 13.383 13.6426 13.8796V14.3773H14.6156V13.8796C14.6168 13.383 14.4536 13.1348 14.1309 13.1348Z" fill="#0F4F8D"/>
<path d="M16.5118 10.4038C16.3144 9.54667 15.6133 8.91534 14.7703 8.82076C12.7723 8.59731 10.7506 8.59613 8.73724 8.59731C6.72384 8.59613 4.70099 8.59731 2.70296 8.82076C1.85882 8.91534 1.15892 9.54667 0.961478 10.4038C0.681281 11.6239 0.677734 12.9563 0.677734 14.2131C0.677734 15.4698 0.677734 16.8011 0.957931 18.0223C1.15537 18.8795 1.85527 19.5108 2.69941 19.6054C4.69744 19.8288 6.71911 19.83 8.73251 19.8288C10.7459 19.83 12.7676 19.8288 14.7656 19.6054C15.6086 19.5108 16.3097 18.8795 16.5071 18.0223C16.7873 16.8022 16.7897 15.4698 16.7897 14.2131C16.7908 12.9563 16.792 11.6239 16.5118 10.4038ZM5.2732 11.501H4.10749V17.6972H3.02453V11.501H1.87892V10.4854H5.2732V11.501ZM8.21586 17.6984H7.24167V17.112C6.85389 17.5565 6.48739 17.7717 6.12916 17.7717C5.81586 17.7717 5.59951 17.644 5.50138 17.3721C5.44818 17.2089 5.41507 16.9524 5.41507 16.5729V12.3238H6.38808V16.2809C6.38808 16.509 6.38808 16.6273 6.39754 16.6592C6.42118 16.8105 6.49567 16.8874 6.62571 16.8874C6.82079 16.8874 7.02532 16.7372 7.24167 16.4322V12.325H8.21586V17.6984ZM11.9152 16.0858C11.9152 16.5823 11.8821 16.9406 11.817 17.1687C11.687 17.5683 11.4269 17.7729 11.0391 17.7729C10.6927 17.7729 10.3581 17.5802 10.033 17.1782V17.6996H9.06V10.4878H10.033V12.8428C10.3475 12.4562 10.6809 12.26 11.0391 12.26C11.4269 12.26 11.687 12.4645 11.817 12.8665C11.8821 13.0828 11.9152 13.4375 11.9152 13.9471V16.0858ZM15.5897 15.1884H13.6425V16.1413C13.6425 16.6391 13.8056 16.8874 14.139 16.8874C14.379 16.8874 14.5185 16.7573 14.5741 16.4972C14.5835 16.444 14.5954 16.2277 14.5954 15.8375H15.5885V15.9794C15.5885 16.2927 15.5766 16.509 15.5684 16.6072C15.5353 16.8235 15.4584 17.0186 15.3402 17.19C15.0706 17.5802 14.671 17.7729 14.1627 17.7729C13.6531 17.7729 13.2653 17.5896 12.9839 17.2219C12.777 16.9524 12.6706 16.5291 12.6706 15.9581V14.0759C12.6706 13.5013 12.7652 13.0816 12.9721 12.8097C13.2535 12.442 13.6413 12.2588 14.1378 12.2588C14.6261 12.2588 15.0139 12.442 15.287 12.8097C15.4903 13.0816 15.5885 13.5013 15.5885 14.0759V15.1884H15.5897Z" fill="#0F4F8D"/>
<path d="M10.5172 13.1348C10.3564 13.1348 10.1944 13.2104 10.0312 13.3712V16.6461C10.1944 16.8092 10.3564 16.8861 10.5172 16.8861C10.7985 16.8861 10.9404 16.6461 10.9404 16.1614V13.8678C10.9404 13.383 10.7974 13.1348 10.5172 13.1348Z" fill="#0F4F8D"/>
<path fill-rule="evenodd" clip-rule="evenodd" d="M7.04836 0.337891H5.94531L5.20166 3.19779L4.42728 0.337891H3.2793C3.50866 1.01296 3.74866 1.69159 3.9792 2.36784C4.32915 3.38341 4.54669 4.14952 4.646 4.67208V7.62183H5.73723V4.67208L7.04836 0.337891ZM9.96383 5.86498V3.9639C9.96383 3.38341 9.86452 2.96016 9.65881 2.68469C9.38689 2.31464 9.00383 2.12902 8.51083 2.12902C8.02137 2.12902 7.63713 2.31464 7.36521 2.68469C7.15595 2.95897 7.05782 3.38341 7.05782 3.9639V5.86498C7.05782 6.44193 7.15713 6.86873 7.36521 7.14183C7.63713 7.51188 8.02019 7.6975 8.51083 7.6975C9.00383 7.6975 9.3857 7.51188 9.65881 7.14183C9.86452 6.86991 9.96383 6.44193 9.96383 5.86498ZM8.98019 6.04942C8.98019 6.55188 8.82768 6.80252 8.51083 6.80252C8.19398 6.80252 8.04147 6.5507 8.04147 6.04942V3.76646C8.04147 3.264 8.19398 3.01454 8.51083 3.01454C8.82768 3.01454 8.98019 3.264 8.98019 3.76646V6.04942ZM13.6017 7.62183V2.19405H12.618V6.34262C12.4005 6.65119 12.1936 6.8037 11.9973 6.8037C11.8649 6.8037 11.7881 6.72567 11.7668 6.57316C11.755 6.54124 11.755 6.42183 11.755 6.19011V2.19405H10.7749V6.48567C10.7749 6.86873 10.808 7.12883 10.8624 7.29316C10.9605 7.56863 11.1792 7.6975 11.4961 7.6975C11.8543 7.6975 12.2279 7.47878 12.6192 7.02952V7.62183H13.6017Z" fill="#0F4F8D"/>
</svg>
